<?xml version="1.0" encoding="UTF-8"?>
<svg class="i-logo" fill="#fff" width="212px" height="40px" viewBox="0 0 212 40" version="1.1" xmlns="http://www.w3.org/2000/svg" xmlns:xlink="http://www.w3.org/1999/xlink">
    <!-- Generator: Sketch 41.2 (35397) - http://www.bohemiancoding.com/sketch -->
    <title>logo_single_line</title>
    <desc>Created with Sketch.</desc>
    <defs>
        <filter x="-50%" y="-50%" width="200%" height="200%" filterUnits="objectBoundingBox" id="filter-1">
            <feOffset dx="0" dy="2" in="SourceAlpha" result="shadowOffsetOuter1"></feOffset>
            <feGaussianBlur stdDeviation="2" in="shadowOffsetOuter1" result="shadowBlurOuter1"></feGaussianBlur>
            <feColorMatrix values="0 0 0 0 0   0 0 0 0 0   0 0 0 0 0  0 0 0 0.5 0" type="matrix" in="shadowBlurOuter1" result="shadowMatrixOuter1"></feColorMatrix>
            <feMerge>
                <feMergeNode in="shadowMatrixOuter1"></feMergeNode>
                <feMergeNode in="SourceGraphic"></feMergeNode>
            </feMerge>
        </filter>
    </defs>
    <g id="Landing" stroke="none" stroke-width="1" fill-rule="evenodd">
        <g id="1-1-0-LandingPage" transform="translate(-131.000000, -76.000000)">
            <g id="Navigation" filter="url(#filter-1)" transform="translate(-1.000000, 0.000000)">
                <g id="Nav" transform="translate(0.000000, 64.000000)">
                    <g id="Group-4" transform="translate(136.000000, 14.000000)">
                        <g id="Logo">
                            <g id="logo_single_line">
                                <path d="M20.0043757,5.13738272 L8.28854795,5.13738272 L8.28854795,8.15288889 L20.0043757,8.15288889 C25.4093777,8.15288889 28.1496047,10.6006914 28.1496047,15.4259753 C28.1496047,20.7593086 25.3255421,23.3505185 19.5181292,23.3505185 L12.828047,23.3505185 L12.828047,12.5033086 L13.7638121,12.5033086 L11.2998434,8.6637037 L8.83587476,12.5033086 L9.78241879,12.5033086 L9.78241879,26.3676049 L19.5181292,26.3676049 C27.0485636,26.3676049 31.1968297,22.4817778 31.1968297,15.4259753 C31.1968297,8.8877037 27.117229,5.13738272 20.0043757,5.13738272" id="Fill-1"></path>
                                <path d="M19.8175421,0.224 L4.12471233,0.224 L4.12471233,22.0065185 L3.2061135,22.0065185 L5.66848532,25.8473086 L8.13405088,22.0065185 L7.19229746,22.0065185 L7.19229746,3.25965432 L19.8175421,3.25965432 C28.4222701,3.25965432 33.558998,7.90004938 33.558998,15.6728889 C33.558998,26.8981728 24.2931663,28.5744198 18.7711937,28.5744198 L0.0139726027,28.5744198 L0,31.6053333 L18.7711937,31.6053333 C30.1189432,31.6053333 36.6265832,25.7979259 36.6265832,15.6728889 C36.6265832,6.14518519 30.1860117,0.224 19.8175421,0.224" id="Fill-2"></path>
                                <path d="M56.6249706,16.7964444 C56.6249706,13.7718519 54.6304814,10.1436049 49.548047,10.1436049 C44.4676086,10.1436049 42.4403836,13.7718519 42.4403836,16.7964444 C42.4403836,20.774716 45.1426849,23.4153086 49.548047,23.4153086 C53.9550059,23.4153086 56.6249706,20.774716 56.6249706,16.7964444 M39.8342935,16.4784198 C39.8342935,11.7349136 43.6300509,7.94785185 49.548047,7.94785185 C55.4664423,7.94785185 59.2290646,11.7349136 59.2290646,16.4784198 C59.2290646,22.3660247 55.2728219,25.6114568 49.548047,25.6114568 C43.823272,25.6114568 39.8342935,22.3660247 39.8342935,16.4784198" id="Fill-3"></path>
                                <path d="M80.1037339,25.1034074 L77.4980431,25.1034074 L77.4980431,22.6836543 C75.7295108,24.2117531 73.4140509,25.6114568 70.4211194,25.6114568 C68.3316164,25.6114568 63.4755382,25.1346173 63.4755382,19.4386173 L63.4755382,8.45550617 L66.0796321,8.45550617 L66.0796321,18.9278025 C66.0157573,22.8752593 68.9100822,23.4153086 70.7440861,23.4153086 C73.607272,23.4153086 75.9870059,21.6651852 77.4980431,20.0742716 L77.4980431,8.45550617 L80.1037339,8.45550617 L80.1037339,25.1034074 Z" id="Fill-4"></path>
                                <path d="M88.3359922,19.8830617 C89.945636,21.6019753 92.8399609,23.4153086 95.6372759,23.4153086 C100.205119,23.4153086 102.907421,20.4246914 102.907421,16.9864691 C102.907421,11.9261235 99.1759374,10.1436049 95.7031468,10.1436049 C92.0678748,10.1436049 89.8817613,11.8305185 88.3359922,13.4230123 L88.3359922,19.8830617 Z M88.3359922,1.96306173 L88.3359922,10.7488395 C90.5879765,9.06192593 92.3892446,7.94785185 95.8636321,7.94785185 C103.068305,7.94785185 105.511914,13.0725926 105.511914,16.9228642 C105.511914,20.7099259 102.81081,25.6114568 96.185002,25.6114568 C92.4531194,25.6114568 90.7173229,24.5293827 88.2082427,22.4940247 L87.5659022,25.1034074 L85.5386771,25.1034074 C85.5714129,24.5941728 85.7318982,22.4292346 85.7318982,21.9832099 L85.7318982,1.96306173 L88.3359922,1.96306173 Z" id="Fill-5"></path>
                                <polygon id="Fill-6" points="109.628642 25.1034074 112.234333 25.1034074 112.234333 1.96306173 109.628642 1.96306173"></polygon>
                                <path d="M132.658685,15.1083457 C132.142497,12.3721481 129.762763,10.1436049 125.773785,10.1436049 C121.946888,10.1436049 119.791515,12.0525432 119.052564,15.1083457 L132.658685,15.1083457 Z M135.005683,21.6343704 C133.26829,23.4477037 131.596767,25.6114568 125.870395,25.6114568 C120.211092,25.6114568 116.349863,21.7935802 116.349863,16.7008395 C116.349863,11.4168889 120.37038,7.94785185 125.549025,7.94785185 C130.921292,7.94785185 135.616885,10.7164444 135.489135,17.305679 L118.955953,17.305679 C119.213049,20.4246914 121.753268,23.4153086 126.12789,23.4153086 C130.470575,23.4153086 131.917738,21.4739753 132.978458,20.1682963 L135.005683,21.6343704 Z" id="Fill-7"></path>
                                <polygon id="Fill-8" points="142.724947 12.2563951 142.676642 12.2563951 142.676642 25.6114568 139.590294 25.6114568 139.590294 7.98933333 144.267123 7.98933333 149.828219 21.0540247 155.485926 7.98933333 160.065746 7.98933333 160.065746 25.6114568 156.979796 25.6114568 156.979796 12.2563951 156.931491 12.2563951 151.225479 25.6114568 148.45571 25.6114568"></polygon>
                                <path d="M176.94984,18.6066173 L173.227538,10.7531852 L169.50364,18.6066173 L176.94984,18.6066173 Z M171.242231,7.98933333 L175.211249,7.98933333 L183.856697,25.6114568 L180.182701,25.6114568 L178.320751,21.5636543 L168.059671,21.5636543 L166.172571,25.6114568 L162.475022,25.6114568 L171.242231,7.98933333 Z" id="Fill-9"></path>
                                <path d="M196.675162,15.8182716 C198.657276,15.8182716 200.396266,15.6483951 200.396266,13.3704691 C200.396266,11.1174321 198.657276,10.9475556 196.675162,10.9475556 L189.472086,10.9475556 L189.472086,15.8182716 L196.675162,15.8182716 Z M185.996102,7.98933333 L195.915851,7.98933333 C198.928744,7.98933333 203.873847,7.98933333 203.873847,13.395358 C203.873847,18.7764938 198.928744,18.7764938 195.915851,18.7764938 L189.472086,18.7764938 L189.472086,25.6114568 L185.996102,25.6114568 L185.996102,7.98933333 Z" id="Fill-10"></path>
                                <polygon id="Fill-11" points="0 8.14064198 3.03484932 8.14064198 3.03484932 5.13738272 0 5.13738272"></polygon>
                            </g>
                        </g>
                    </g>
                </g>
            </g>
        </g>
    </g>
</svg>